<svg xmlns="http://www.w3.org/2000/svg" viewBox="0 0 394.4 284.43"><defs><style>.cls-1{fill:#70ad2d;}.cls-2{fill:#eb6508;}.cls-3{fill:#60adde;}.cls-4{fill:#ed9f01;}.cls-5{fill:#008e90;}</style></defs><title>Blockly_Elemente</title><g id="Ebene_2" data-name="Ebene 2"><g id="Ebene_1-2" data-name="Ebene 1"><path class="cls-1" d="M0,22.13V74.59H33.15l14.76,8.72,13.53-8.72H256.5V22.13H208S180.69,0,102.82,0,0,22.13,0,22.13Z"/><polygon class="cls-2" points="61.44 74.59 47.91 83.31 33.15 74.59 0 74.59 0 127.05 33.15 127.05 47.91 135.77 61.44 127.05 394.4 127.05 394.4 74.59 61.44 74.59"/><polygon class="cls-3" points="61.44 127.05 47.91 135.77 33.15 127.05 0 127.05 0 179.51 33.15 179.51 47.91 188.23 61.44 179.51 358.1 179.51 358.1 127.05 61.44 127.05"/><polygon class="cls-4" points="61.44 179.51 47.91 188.23 33.15 179.51 0 179.51 0 231.97 33.15 231.97 47.91 240.69 61.44 231.97 301.8 231.97 301.8 179.51 61.44 179.51"/><polyline class="cls-5" points="146.74 284.43 146.74 231.97 61.44 231.97 47.91 240.69 33.15 231.97 0 231.97 0 284.43 146.74 284.43"/></g></g></svg>