<svg xmlns="http://www.w3.org/2000/svg" viewBox="0 0 247.1 145.79"><defs><style>.cls-1{fill:#fff;}.cls-2{fill:#65140d;}.cls-3{fill:#b21917;}.cls-4{fill:#e4361b;}.cls-5{fill:#0887c8;}</style></defs><title>Tinkerbots_Logo_Farbe</title><g id="Ebene_2" data-name="Ebene 2"><g id="Ebene_1-2" data-name="Ebene 1"><rect class="cls-1" width="247.1" height="145.79" rx="7.09"/><path class="cls-2" d="M216.39,80.9h0L192,95v28.21a2.58,2.58,0,0,0,1.31-.35l22.16-12.79a2.68,2.68,0,0,0,1-1h0a2.68,2.68,0,0,0,.36-1.31V82.2a2.64,2.64,0,0,0-.36-1.3"/><path class="cls-3" d="M167.53,80.89h0a2.61,2.61,0,0,0-.35,1.3v25.59a2.67,2.67,0,0,0,.35,1.31h0a2.65,2.65,0,0,0,.95,1l22.16,12.8a2.67,2.67,0,0,0,1.31.34h0V95Z"/><path class="cls-4" d="M192,95l24.43-14.11a2.65,2.65,0,0,0-.95-1l-22.17-12.8a2.67,2.67,0,0,0-1.31-.34h0a2.67,2.67,0,0,0-1.31.34l-22.16,12.8a2.57,2.57,0,0,0-.95,1h0Z"/><path class="cls-4" d="M61.28,80.44a15.55,15.55,0,0,0-4.42-2.36,16.84,16.84,0,0,0-5.4-.87H38.13a5.32,5.32,0,0,0-3.36,1,3.32,3.32,0,0,0-1.32,2.61v28.82a3.28,3.28,0,0,0,1.32,2.56,5.06,5.06,0,0,0,3.36,1.08H51.46a16.84,16.84,0,0,0,5.4-.87,14,14,0,0,0,4.42-2.36,10.57,10.57,0,0,0,3-3.48,8.79,8.79,0,0,0,1.12-4v-.26a9.37,9.37,0,0,0-3.63-7.13,9.14,9.14,0,0,0,3.63-7v-.31a8.93,8.93,0,0,0-1.12-4,11.83,11.83,0,0,0-3-3.49m-6.53,24.47A5.28,5.28,0,0,1,51.46,106H42.75V98.85h8.71a5.22,5.22,0,0,1,3.29,1.08,2.93,2.93,0,0,1,0,5m0-14.36a5.28,5.28,0,0,1-3.29,1.07H42.75V84.49h8.71a5.22,5.22,0,0,1,3.29,1.08,3.35,3.35,0,0,1,1.39,2.51,3.43,3.43,0,0,1-1.39,2.47"/><path class="cls-4" d="M96.8,80.76a15.3,15.3,0,0,0-4.89-2.62,19.76,19.76,0,0,0-12,0,16.46,16.46,0,0,0-5,2.62,12.84,12.84,0,0,0-3.3,3.76,8.89,8.89,0,0,0-1.26,4.68v12.08A9,9,0,0,0,71.67,106a13.16,13.16,0,0,0,3.3,3.85,17.82,17.82,0,0,0,5,2.58,19.42,19.42,0,0,0,6,1,18.66,18.66,0,0,0,6-1,16.5,16.5,0,0,0,4.89-2.58,12.44,12.44,0,0,0,3.37-3.85,9.59,9.59,0,0,0,1.2-4.68V89.2a9.43,9.43,0,0,0-1.2-4.68,12.16,12.16,0,0,0-3.37-3.76m-5,20.52a4,4,0,0,1-1.72,3.34A6.75,6.75,0,0,1,86,106a7,7,0,0,1-4.3-1.34,4.18,4.18,0,0,1-1.72-3.34V89.2A4,4,0,0,1,81.65,86,6.65,6.65,0,0,1,86,84.62,6.4,6.4,0,0,1,90.12,86a3.82,3.82,0,0,1,1.72,3.24Z"/><path class="cls-4" d="M155.08,91.59h4.09c1.72,0,2.71-.77,2.71-2.1v-.31a9.35,9.35,0,0,0-1.19-4.67,12.13,12.13,0,0,0-3.37-3.75,15.1,15.1,0,0,0-4.89-2.62,19.59,19.59,0,0,0-11.88,0,15.3,15.3,0,0,0-4.89,2.62,14.2,14.2,0,0,0-3.37,3.75,9.46,9.46,0,0,0-1.19,4.67c0,.82.07,1.43.07,1.9a5.14,5.14,0,0,0,.4,1.44,2.29,2.29,0,0,0,.33.61v.06a8.7,8.7,0,0,0,4.35,3.07l15.86,3.65c.19.2.19.31.19.36a4.45,4.45,0,0,1,.07,1.08,4.11,4.11,0,0,1-1.72,3.23,7.13,7.13,0,0,1-8.32,0,4.14,4.14,0,0,1-1.72-3.23V101c0-1.34-1-2.11-2.7-2.11h-4.1c-1.72,0-2.71.77-2.71,2.11v.36a9.46,9.46,0,0,0,1.19,4.62,14.39,14.39,0,0,0,3.37,3.8,16.48,16.48,0,0,0,4.89,2.57,18.67,18.67,0,0,0,11.88,0,16.24,16.24,0,0,0,4.89-2.57,12.28,12.28,0,0,0,3.37-3.8,9.36,9.36,0,0,0,1.19-4.62,15.45,15.45,0,0,0-.07-1.95,7.3,7.3,0,0,0-.32-1.39l-.4-.67a9.32,9.32,0,0,0-4.49-3.13l-15.72-3.65-.2-.3a5.63,5.63,0,0,1-.07-1.08,4.1,4.1,0,0,1,1.72-3.24,7.17,7.17,0,0,1,8.32,0,4.07,4.07,0,0,1,1.72,3.24v.31c0,1.33,1,2.1,2.71,2.1"/><path class="cls-4" d="M126.17,77.21H106.49c-1.72,0-2.71.77-2.71,2.11V82.5c0,1.34,1,2.11,2.71,2.11h5.08v26.6a2,2,0,0,0,.73,1.43,2.85,2.85,0,0,0,2,.67h4.1a2.85,2.85,0,0,0,2-.67,2,2,0,0,0,.72-1.43V84.61h5.09c1.72,0,2.71-.77,2.71-2.11V79.32c0-1.34-1-2.11-2.71-2.11"/><path class="cls-5" d="M143.61,34.27h-4.24c-1.77,0-2.79.8-2.79,2.18v7.8a4.31,4.31,0,0,1-1.78,3.44,7.2,7.2,0,0,1-4.43,1.38h-6.08V36.45c0-1.38-1-2.18-2.79-2.18h-4.23c-1.78,0-2.8.8-2.8,2.18V69.39a2,2,0,0,0,.75,1.49,3,3,0,0,0,2,.69h4.23a3,3,0,0,0,2-.69,2,2,0,0,0,.75-1.49V56.71h6.08a6.84,6.84,0,0,1,4.43,1.38,4.13,4.13,0,0,1,1.78,3.34v8a2,2,0,0,0,.75,1.49,3,3,0,0,0,2,.69h4.24a2.73,2.73,0,0,0,2-.69,1.92,1.92,0,0,0,.81-1.49v-8a9.73,9.73,0,0,0-1.36-5,12.15,12.15,0,0,0-3.14-3.56A12.5,12.5,0,0,0,145,49.23a9.89,9.89,0,0,0,1.36-5v-7.8c0-1.38-1-2.18-2.79-2.18"/><path class="cls-5" d="M103.64,37.93a20.91,20.91,0,0,0-5-2.71,20.52,20.52,0,0,0-12.36,0,18,18,0,0,0-5.12,2.71,12.06,12.06,0,0,0-3.47,3.93,9.55,9.55,0,0,0-1.23,4.77V69.39a2,2,0,0,0,.75,1.49,3,3,0,0,0,2,.69h4.23a2.76,2.76,0,0,0,2-.69,1.92,1.92,0,0,0,.81-1.49V46.63A4,4,0,0,1,88,43.29a7.22,7.22,0,0,1,4.43-1.38,6.78,6.78,0,0,1,4.24,1.38,4.11,4.11,0,0,1,1.84,3.34V69.39a2,2,0,0,0,.75,1.49,3,3,0,0,0,2,.69h4.24a2.73,2.73,0,0,0,2-.69,1.92,1.92,0,0,0,.81-1.49V46.63a9.6,9.6,0,0,0-1.29-4.77,13.58,13.58,0,0,0-3.41-3.93"/><path class="cls-5" d="M69.4,34.85a3.47,3.47,0,0,0-1.92-.58H63.25c-1.77,0-2.79.8-2.79,2.18V69.39c0,1.38,1,2.18,2.79,2.18h4.23c1.78,0,2.8-.8,2.8-2.18V36.45a2,2,0,0,0-.88-1.6"/><path class="cls-5" d="M52.64,34.27H32.31c-1.78,0-2.8.8-2.8,2.18v3.28c0,1.38,1,2.18,2.8,2.18h5.25V69.39a2,2,0,0,0,.75,1.49,3,3,0,0,0,2,.69h4.23a3,3,0,0,0,2-.69,2.08,2.08,0,0,0,.75-1.49V41.91h5.25c1.78,0,2.8-.8,2.8-2.18V36.45c0-1.38-1-2.18-2.8-2.18"/><path class="cls-5" d="M173.21,34.27H157.44a5.55,5.55,0,0,0-3.54,1.11,3.32,3.32,0,0,0-1.37,2.71V67.75a3.6,3.6,0,0,0,1.37,2.7,5.55,5.55,0,0,0,3.54,1.12h15.77c1.77,0,2.8-.8,2.8-2.18V66.1c0-1.38-1-2.17-2.8-2.17H162.36V56.71h10.85c1.77,0,2.8-.8,2.8-2.17V51.25c0-1.38-1-2.18-2.8-2.18H162.36V41.91h10.85c1.77,0,2.8-.8,2.8-2.18V36.45c0-1.38-1-2.18-2.8-2.18"/><path class="cls-5" d="M209.56,55a10.81,10.81,0,0,0,4.37-8.49,8.62,8.62,0,0,0-1.29-4.61,13.35,13.35,0,0,0-3.35-3.93,18.43,18.43,0,0,0-5-2.71,19.94,19.94,0,0,0-6.21-.95H187a5.6,5.6,0,0,0-3.55,1.11,3.33,3.33,0,0,0-1.36,2.71v31.4l8.7-5a2.58,2.58,0,0,0,.77-.84h0a2.5,2.5,0,0,0,.35-1.29h0V58.78H198a7.1,7.1,0,0,1,4.3,1.38,4.19,4.19,0,0,1,1.77,3.34v5.89a2.05,2.05,0,0,0,.76,1.49,3,3,0,0,0,2,.69h4.23a2.72,2.72,0,0,0,2-.69,1.91,1.91,0,0,0,.82-1.49V63.5A10.66,10.66,0,0,0,209.56,55m-7.23-5.2a6.73,6.73,0,0,1-4.3,1.38H192V41.91H198a7.1,7.1,0,0,1,4.3,1.38,4.29,4.29,0,0,1,1.77,3.18,4.39,4.39,0,0,1-1.77,3.29"/><path class="cls-5" d="M223.6,33.28a1.14,1.14,0,0,0-.19-.64,1.9,1.9,0,0,0-.47-.56,3.06,3.06,0,0,0-.74-.4,2.94,2.94,0,0,0-.91-.13H219.6a.68.68,0,0,0-.46.14.35.35,0,0,0-.16.3v4.63a.22.22,0,0,0,.07.12.36.36,0,0,0,.22.07h.65a.25.25,0,0,0,.21-.07h0a.14.14,0,0,0,.07-.11V35h1.08a1.24,1.24,0,0,1,.75.24.77.77,0,0,1,.32.62v.72a.22.22,0,0,0,.07.12.38.38,0,0,0,.22.07h.65a.25.25,0,0,0,.21-.07h0a.16.16,0,0,0,.08-.11V35.9a1.5,1.5,0,0,0-.62-1.2l-.14-.11.14-.11a1.53,1.53,0,0,0,.62-1.2m-1.24,0a.79.79,0,0,1-.32.61,1.2,1.2,0,0,1-.75.24h-1.08v-1.7h1.08a1.24,1.24,0,0,1,.75.24.8.8,0,0,1,.32.59h0Z"/><path class="cls-5" d="M221.18,29.86a4.41,4.41,0,1,0,4.41,4.41,4.4,4.4,0,0,0-4.41-4.41m2.68,7.1A3.79,3.79,0,1,1,225,34.27,3.78,3.78,0,0,1,223.86,37"/></g></g></svg>