<svg xmlns="http://www.w3.org/2000/svg" viewBox="0 0 228.85 254.55"><defs><style>.cls-1{fill:#7a1614;}.cls-2{fill:#911819;}.cls-3{fill:#ce1417;}.cls-4{fill:#e21813;}.cls-5{fill:#9b1915;}.cls-6{fill:#b81818;}.cls-7{fill:#8f1913;}.cls-8{fill:#f7a84a;}.cls-9{fill:#f6a129;}.cls-10{fill:#fff;}.cls-11{fill:#ea5556;}.cls-12{fill:#e8423b;}.cls-13{fill:#cdcccc;}.cls-14{fill:#878787;}.cls-15{fill:#010101;}.cls-16{fill:#4a4a4a;}.cls-17{fill:#e5e5e4;}.cls-18{fill:#9c1915;}</style></defs><title>Powerbrain</title><g id="Ebene_2" data-name="Ebene 2"><g id="Ebene_1-2" data-name="Ebene 1"><path class="cls-1" d="M202.42,178.24v5l-5.08-2.5-4.49-2.26h0a9.47,9.47,0,0,1,.39-1.89l3-1.5Z"/><path class="cls-1" d="M202.42,167v5l-5-2.53A8.13,8.13,0,0,1,202.42,167Z"/><path class="cls-1" d="M202.42,97.21v5l-5.06-2.51A8.1,8.1,0,0,1,202.42,97.21Z"/><path class="cls-2" d="M197.34,180.79l5.08,2.5a8.09,8.09,0,0,1-5.08,2.54Z"/><path class="cls-1" d="M197.34,171.59v-2.06l0,0,5,2.53,4.12-2.06a10.6,10.6,0,0,1,0,6.21Z"/><path class="cls-1" d="M197.34,101.81V99.75h0l5.06,2.51,4.12-2a10.6,10.6,0,0,1,0,6.21Z"/><polygon class="cls-2" points="197.34 171.59 206.54 176.18 202.42 178.24 196.21 175.14 197.34 174.58 197.34 171.59"/><polygon class="cls-2" points="197.34 101.81 206.54 106.42 202.42 108.46 196.21 105.36 197.34 104.8 197.34 101.81"/><path class="cls-2" d="M192.85,108.73l9.57,4.78a8,8,0,0,1-5.08,2.54v-5l-4.49-2.25Z"/><path class="cls-1" d="M192.85,108.73v0h0a9.57,9.57,0,0,1,.39-1.9l3-1.5,6.21,3.1v5.05Z"/><path class="cls-2" d="M193.22,113.07a10.51,10.51,0,0,1-.39-4.31h0l4.49,2.25Z"/><path class="cls-2" d="M193.22,182.85a10.58,10.58,0,0,1-.39-4.32h0l4.49,2.26Z"/><path class="cls-3" d="M192,157.22l0,0a51,51,0,0,1-11,19l-5.46-4.68h0a44.59,44.59,0,0,0,9.63-16.64Z"/><polygon class="cls-4" points="192.03 157.22 185.19 154.91 187.78 155.09 192.03 157.22"/><path class="cls-5" d="M185.19,134.27l6.87-.62a33,33,0,0,1,0,23.59l0,0-4.25-2.13-2.59-.18-1.92-.46a44.47,44.47,0,0,0,2.36-14.35,27.5,27.5,0,0,0-.62-6.21h0Z"/><path class="cls-6" d="M185,133.89a11.43,11.43,0,0,0-9.46-6.61l5.47-1.64a13.13,13.13,0,0,1,11,8l-6.87.62Z"/><polygon class="cls-7" points="176.75 174.11 175.57 171.56 181.03 176.24 176.75 174.11"/><path class="cls-7" d="M181,125.64l-5.47,1.64.35-.91A26.66,26.66,0,0,1,181,125.64Z"/><polygon class="cls-8" points="175.6 143.24 176.03 142.64 176.54 142.12 177.09 141.75 177.65 141.56 178.16 141.56 178.6 141.76 178.94 142.13 179.15 142.66 179.22 143.3 179.15 144.02 178.94 144.75 178.6 145.47 178.16 146.09 177.65 146.62 177.09 146.99 176.54 147.18 176.03 147.18 175.59 146.98 175.25 146.61 175.03 146.08 174.96 145.44 175.03 144.72 175.25 143.99 175.59 143.27 175.6 143.24"/><path class="cls-5" d="M185.19,154.91a44.59,44.59,0,0,1-9.63,16.64h0l1.18,2.55,4.28,2.13a26.13,26.13,0,0,1-19.26,9.63l-2.6-5a44.53,44.53,0,0,0,24.1-26.42Z"/><path class="cls-8" d="M178.6,140.87a3.31,3.31,0,0,0-3.35,2l-.06.08-.07.08-.09,0-.07,0-.07,0-.06,0,0-.05,0-.07a7.63,7.63,0,0,0-7.91-7.39,7,7,0,0,0-1.87.29h-.14l0,0,0-.07,0-.09,0-.1,0-.1,0-.1a4.92,4.92,0,0,0,.61-3.52l-.1-.12a23.9,23.9,0,0,1,2.59-1.9l0,.1c.23,0,.44,0,.67,0A10.42,10.42,0,0,1,179,140.3v.1l0,.11,0,.1-.06.1-.08.07-.07.06-.09,0Z"/><path class="cls-8" d="M175.6,147.87l.4.07.42,0,.45-.12.45-.23.45-.31.43-.4.4-.47.07-.09.09,0,.07,0h.08l.06,0,0,.06,0,.08v.12A34.86,34.86,0,0,1,165.38,170l-.08,0-.07,0-.08,0-.05,0,0-.07v-.2l0-.12a3.47,3.47,0,0,0-.27-4l0-.06,0-.07,0-.08,0-.1,0-.1,0-.1.07-.09L165,165a25.74,25.74,0,0,0,9.78-16.89l0-.1,0-.1.06-.08.07-.09.07,0,.09,0h.07l.06,0Z"/><polygon class="cls-8" points="160.74 154.61 160.41 154.15 160.21 153.54 160.15 152.85 160.21 152.06 160.41 151.27 160.74 150.49 161.16 149.75 161.67 149.09 162.26 148.55 162.85 148.17 163.45 147.96 164.03 147.91 164.54 148.06 164.97 148.37 165.28 148.84 165.5 149.44 165.55 150.13 165.5 150.91 165.28 151.71 164.97 152.5 164.54 153.24 164.03 153.88 163.45 154.42 162.85 154.81 162.26 155.02 161.67 155.06 161.16 154.92 160.74 154.61"/><polygon class="cls-8" points="160.79 169.29 161 168.55 161.35 167.84 161.79 167.2 162.3 166.69 162.85 166.32 163.41 166.13 163.92 166.13 164.36 166.33 164.7 166.7 164.91 167.23 164.98 167.87 164.91 168.58 164.7 169.32 164.64 169.43 164.36 170.03 163.92 170.67 163.41 171.18 162.85 171.55 162.3 171.73 161.79 171.73 161.35 171.53 161 171.16 160.79 170.64 160.72 170 160.79 169.29"/><path class="cls-8" d="M161.79,136.84l-.44-.2-.35-.36-.05-.08.11-.12,3.84-3.81v.07l.07.64-.07.71-.21.74-.34.71-.44.64-.51.52-.56.36-.55.18Z"/><path d="M176,142.64l-.43.6-.41-.29.06-.08a3.31,3.31,0,0,1,3.35-2h.07l.09,0,.07-.06.08-.07.06-.1,0-.1,0-.11v-.1a10.42,10.42,0,0,0-10.39-10.45c-.23,0-.44,0-.67,0l0-.1a25.68,25.68,0,0,1,8-3.41l-.35.91a11.43,11.43,0,0,1,9.46,6.61h0a27.5,27.5,0,0,1,.62,6.21,44.58,44.58,0,0,1-26.46,40.77l-.47-.89a11.43,11.43,0,0,1-9.21-6.1,31,31,0,0,1-.85-5.32,9.65,9.65,0,0,0,11.68,4,.52.52,0,0,0,.29-.67h0a4.21,4.21,0,0,1,.29-4.25l.47.19-.35.71-.21.74-.07.71.07.64.21.52.35.37.44.2h.51l.55-.18.56-.37.51-.51.44-.64.28-.6.46.21,0,.12v.2l0,.07.05,0,.08,0,.07,0,.08,0A34.86,34.86,0,0,0,179,146.51v-.12l0-.08,0-.06-.06,0h-.08l-.07,0-.09,0-.07.09-.44-.28.44-.63.34-.72.21-.73.07-.72-.07-.64-.21-.53-.34-.37-.44-.2h-.51l-.56.19-.55.37Z"/><path class="cls-9" d="M156.67,141.82a53.2,53.2,0,0,1,3.79-5l.13.23.29.3,0,.06,0,.07v.08l0,.1,0,.1-.06.1-.06.09-.07.07A21.41,21.41,0,0,0,156.67,141.82Z"/><path d="M160.73,150.49l-.32.78-.2.79-.06.79.06.69.2.61.32.46.43.31.51.14.59,0,.59-.21.6-.39.58-.54.51-.64.43-.74.31-.79.22-.8.05-.78-.05-.69-.22-.6-.31-.47-.43-.31-.51-.15-.58.05-.6.21-.59.38-.59.54-.51.66Zm-.88,7.81-.65-.32-.57-.5-.44-.65-.34-.8-.2-.91-.07-1,.07-1.07.2-1.11.34-1.12.44-1.11.57-1.07.65-1,.74-.88.8-.77.82-.62.86-.47.83-.28.81-.13.77.07.7.24.61.41.51.57.4.73.27.85.14,1v1l-.14,1.09-.27,1.13-.4,1.12-.51,1.08-.61,1-.7.94-.77.82-.81.7-.83.55-.86.39-.82.2-.8,0Z"/><path class="cls-8" d="M159.2,158l.65.32.74.15.8,0,.82-.2.86-.39.83-.55.81-.7.77-.82.7-.94.61-1,.51-1.08.4-1.12.27-1.13.14-1.09v-1l-.14-1-.27-.85-.4-.73-.51-.57-.61-.41-.7-.24-.77-.07-.81.13-.83.28-.86.47-.82.62-.8.77-.74.88-.65,1-.57,1.07-.44,1.11-.34,1.12-.2,1.11-.07,1.07.07,1,.2.91.34.8.44.65Zm13.12-12.64.07,1.38-.07,1.44-.2,1.49-.34,1.52-.49,1.52-.58,1.51-.71,1.47-.82,1.4-.91,1.33-1,1.23-1.06,1.09-1.09,1-1.14.81-1.15.67-1.15.48-1.14.31-1.09.15-1.05-.06-1-.24-.89-.41-.83-.6-.71-.75-.59-.91-.47-1.06-.34-1.18-.22-1.27-.07-1.38.07-1.44.22-1.49.34-1.52.47-1.52.59-1.51.71-1.46.83-1.41.89-1.34,1-1.22,1.05-1.09,1.09-1,1.14-.81,1.15-.67,1.15-.48,1.14-.32,1.09-.12,1.06,0,1,.24.91.41.82.6.71.75.58.91.49,1,.34,1.18Z"/><path class="cls-4" d="M148.9,221.11l2.34.19,2.39,0,2.44-.16,2.5-.34,2.52-.52,2.56-.7,2.57-.87,2.59-1,2.58-1.21,2.6-1.38,2.59-1.55,2.57-1.7L181.7,210l2.53-2,2.48-2.15,2.45-2.29,2.4-2.41,2.35-2.55,2.27-2.64,2.22-2.77,2.13-2.87,2.06-3,2-3,1.88-3.13,1.79-3.21,1.69-3.26,1.58-3.31L213,168l1.37-3.38,1.23-3.41,1.11-3.43,1-3.44.86-3.42.74-3.43.61-3.38.47-3.37.34-3.33.2-3.26L221,131l-.07-3.14-.2-3.07-.34-3-.47-2.9-.61-2.78-.74-2.67-.86-2.58-1-2.43-1.11-2.31-1.23-2.18-1.37-2L211.5,100l-1.58-1.74-1.69-1.58-1.79-1.4-1.88-1.25-2-1.08-2.06-.9-2.13-.74-2.22-.55-2.27-.37-2.35-.2-2.4,0-2.45.16-2.48.34-2.53.53-2.55.69-2.57.87-2.59,1-2.6,1.22-2.58,1.38L166.22,98l-2.57,1.71-2.56,1.86-2.52,2-2.5,2.14L153.63,108l-2.39,2.41-2.34,2.55-2.29,2.65-2.2,2.77-2.15,2.87-2.06,3-2,3.06-1.89,3.12-1.79,3.2-1.68,3.26-1.58,3.31-1.48,3.35-1.35,3.4-1.23,3.41-1.12,3.42-1,3.43-.87,3.44-.74,3.41-.59,3.39-.47,3.36-.34,3.32-.22,3.27,0,3.21,0,3.15.22,3.07.34,3,.47,2.88.59,2.79.74,2.69.87,2.55,1,2.45,1.12,2.3,1.23,2.18,1.35,2,1.48,1.89,1.58,1.73,1.68,1.57,1.79,1.42,1.89,1.23,2,1.08,2.06.91,2.15.73,2.2.55ZM228.37,57.5V197.06L114.42,254V114.47Z"/><path class="cls-6" d="M159.17,180.87l2.6,5a13,13,0,0,1-11-8l-.68-2s0,0,0-.06c-.22-.65-.4-1.3-.56-2a11.43,11.43,0,0,0,9.21,6.1Z"/><path class="cls-8" d="M149.14,160.88l1.06-4.81A3.6,3.6,0,0,1,149.14,160.88Z"/><path class="cls-8" d="M158.86,167.44a7.41,7.41,0,0,0,1.86-.28l.07,0,.06,0,.06.05,0,.06,0,.09v.1l0,.1,0,.09a4.21,4.21,0,0,0-.29,4.25h0a.52.52,0,0,1-.29.67,9.65,9.65,0,0,1-11.68-4,33.82,33.82,0,0,1,.2-6.89l.18,0a5.42,5.42,0,0,0,1.44-1.58l.06-.09.07-.07.08,0,.07,0,.08,0,.05,0,0,.06,0,.09A7.66,7.66,0,0,0,158.86,167.44Z"/><path d="M150.2,156.07l-1.06,4.81A3.6,3.6,0,0,0,150.2,156.07Zm22.12-7.91.07-1.44-.07-1.38-.2-1.28-.34-1.18-.49-1-.58-.91-.71-.75-.82-.6-.91-.41-1-.24-1.06,0-1.09.12-1.14.32-1.15.48-1.15.67-1.14.81-1.09,1-1.05,1.09-1,1.22-.89,1.34-.83,1.41-.71,1.46-.59,1.51-.47,1.52-.34,1.52-.22,1.49-.07,1.44.07,1.38.22,1.27.34,1.18.47,1.06.59.91.71.75.83.6.89.41,1,.24,1.05.06,1.09-.15,1.14-.31,1.15-.48,1.15-.67,1.14-.81,1.09-1,1.06-1.09,1-1.23.91-1.33.82-1.4.71-1.47.58-1.51.49-1.52.34-1.52Zm3.68-.22-.4-.07-.35-.15-.06,0h-.07l-.09,0-.07,0-.07.09-.06.08,0,.1,0,.1A25.74,25.74,0,0,1,165,165l-.07.05-.07.09,0,.1,0,.1,0,.1,0,.08,0,.07,0,.06a3.47,3.47,0,0,1,.27,4l-.46-.21.06-.11.21-.74.07-.71-.07-.64-.21-.53-.34-.37-.44-.2h-.51l-.56.19-.55.37-.51.51-.44.64-.47-.19,0-.09,0-.1v-.1l0-.09,0-.06-.06-.05-.06,0-.07,0a7.41,7.41,0,0,1-1.86.28,7.66,7.66,0,0,1-7.93-7.37l0-.09,0-.06-.05,0-.08,0-.07,0-.08,0-.07.07-.06.09a5.42,5.42,0,0,1-1.44,1.58l-.18,0a32.75,32.75,0,0,1,1.9-7.37c.22-.67.44-1.33.69-2a50.22,50.22,0,0,1,5.23-10.47s0,0,0,0a21.41,21.41,0,0,1,4.05-3.85l.07-.07.06-.09.06-.1,0-.1,0-.1v-.08l0-.07,0-.06-.29-.3-.13-.23c.16-.2.32-.38.49-.57l.05.08.35.36.44.2h.51l.55-.18.56-.36.51-.52.44-.64.34-.71.21-.74L165,133l-.07-.64v-.07l-3.84,3.81c.23-.27.47-.54.71-.8a26.41,26.41,0,0,1,3.57-3.6l.1.12a4.92,4.92,0,0,1-.61,3.52l0,.1,0,.1,0,.1,0,.09,0,.07,0,0H165a7,7,0,0,1,1.87-.29,7.63,7.63,0,0,1,7.91,7.39l0,.07,0,.05.06,0,.07,0,.07,0,.09,0,.07-.08.41.29v0l-.34.72-.22.73-.07.72.07.64.22.53.34.37.44.2h.51l.55-.19.56-.37.51-.52.44.28-.4.47-.43.4-.45.31-.45.23-.45.12Z"/><path class="cls-1" d="M145.44,206.74v5L135.88,207h0a11.73,11.73,0,0,1,.4-1.87l3-1.5Z"/><path class="cls-1" d="M145.44,195.48v5.05l-5-2.53A8,8,0,0,1,145.44,195.48Z"/><path class="cls-1" d="M145.44,137v5l-9.56-4.79h0a11.73,11.73,0,0,1,.4-1.87l3-1.5Z"/><path class="cls-1" d="M145.44,125.7v5l-5-2.53A8.06,8.06,0,0,1,145.44,125.7Z"/><path class="cls-1" d="M149.56,134.9l-9.19-4.59v-2.08h0l5,2.53,4.12-2.06A10.44,10.44,0,0,1,149.56,134.9Z"/><path class="cls-1" d="M149.56,204.68l-9.19-4.61V198h0l5,2.53,4.12-2.06A10.44,10.44,0,0,1,149.56,204.68Z"/><polygon class="cls-5" points="140.37 200.07 149.56 204.68 145.44 206.74 139.23 203.63 140.37 203.06 140.37 200.07"/><polygon class="cls-5" points="140.37 130.31 149.56 134.9 145.44 136.96 139.23 133.84 140.37 133.28 140.37 130.31"/><path class="cls-2" d="M135.88,207l4.49,2.25-4.11,2.06a10.68,10.68,0,0,1-.4-4.31Z"/><path class="cls-2" d="M135.88,137.24l4.49,2.25-4.11,2.06a10.66,10.66,0,0,1-.4-4.31Z"/><path class="cls-2" d="M140.37,139.49l-4.49-2.25h0v0h0l9.56,4.79a8,8,0,0,1-5.07,2.53Z"/><path class="cls-2" d="M140.37,209.27,135.88,207h0v0h0l9.56,4.79a8.05,8.05,0,0,1-5.07,2.53Z"/><path class="cls-4" d="M220.89,127.83l-.2-3.07-.34-3-.47-2.9-.61-2.78-.74-2.67-.86-2.58-1-2.43-1.11-2.31-1.23-2.18-1.37-2L211.5,100l-1.58-1.74-1.69-1.58-1.79-1.4-1.88-1.25-2-1.08-2.06-.9-2.13-.74-2.22-.55-2.27-.37-2.35-.2-2.4,0-2.45.16-2.48.34-2.53.53-2.55.69-2.57.87-2.59,1-2.6,1.22-2.58,1.38L166.22,98l-2.57,1.71-2.56,1.86-2.52,2-2.5,2.14L153.63,108l-2.39,2.41-2.34,2.55-2.29,2.65-2.2,2.77-2.15,2.87-2.06,3-2,3.06-1.89,3.12-1.79,3.2-1.68,3.26-1.58,3.31-1.48,3.35-1.35,3.4-1.23,3.41-1.12,3.42-1,3.43-.87,3.44-.74,3.41-.59,3.39-.47,3.36-.34,3.32-.22,3.27,0,3.21,0,3.15.22,3.07.34,3,.47,2.88.59,2.79.74,2.69.87,2.55,1,2.45,1.12,2.3,1.23,2.18,1.35,2,1.48,1.89,1.58,1.73,1.68,1.57,1.79,1.42,1.89,1.23,2,1.08,2.06.91,2.15.73,2.2.55,2.29.39,2.34.19,2.39,0,2.44-.16,2.5-.34,2.52-.52,2.56-.7,2.57-.87,2.59-1,2.58-1.21,2.6-1.38,2.59-1.55,2.57-1.7L181.7,210l2.53-2,2.48-2.15,2.45-2.29,2.4-2.41,2.35-2.55,2.27-2.64,2.22-2.77,2.13-2.87,2.06-3,2-3,1.88-3.13,1.79-3.21,1.69-3.26,1.58-3.31L213,168l1.37-3.38,1.23-3.41,1.11-3.43,1-3.44.86-3.42.74-3.43.61-3.38.47-3.37.34-3.33.2-3.26L221,131Zm-72,41.93c-.64-7.07,1.12-15.17,5-22.81,6.31-12.58,16.78-21,26.06-21a12.83,12.83,0,0,1,5.82,1.34c9.69,4.86,11.17,21.6,3.28,37.33-6.31,12.59-16.78,21-26.05,21h0a13,13,0,0,1-5.83-1.33C152.47,181.94,149.54,176.78,148.91,169.76Zm-13-32.52v0a11.73,11.73,0,0,1,.4-1.87l3-1.5,1.14-.56v-5.05h0a8.06,8.06,0,0,1,5-2.52v5l4.12-2.06a10.44,10.44,0,0,1,0,6.21L145.44,137v5a8,8,0,0,1-5.07,2.53v-5l-4.11,2.06A10.66,10.66,0,0,1,135.86,137.24Zm13.7,67.44-4.12,2.06v5a8.05,8.05,0,0,1-5.07,2.53v-5l-4.11,2.06a10.68,10.68,0,0,1-.4-4.31v0a11.73,11.73,0,0,1,.4-1.87l3-1.5,1.14-.56V198h0a8,8,0,0,1,5-2.52v5.05l4.12-2.06A10.44,10.44,0,0,1,149.56,204.68Zm57-28.5-4.12,2.06v5a8.09,8.09,0,0,1-5.08,2.54v-5l-4.12,2.06a10.58,10.58,0,0,1-.39-4.32,9.47,9.47,0,0,1,.39-1.89l3-1.5,1.13-.56v-5.05l0,0a8.13,8.13,0,0,1,5-2.51v5l4.12-2.06A10.6,10.6,0,0,1,206.54,176.18Zm0-69.76-4.12,2v5.05a8,8,0,0,1-5.08,2.54v-5l-4.12,2.06a10.51,10.51,0,0,1-.39-4.31,9.57,9.57,0,0,1,.39-1.9l3-1.5,1.13-.56v-5h0a8.1,8.1,0,0,1,5.06-2.53v5l4.12-2A10.6,10.6,0,0,1,206.54,106.42Z"/><path class="cls-1" d="M153.66,221.8l-2.42,0-2.38-.2-2.33-.39-2.24-.56-2.18-.73L140,219l-2-1.1-1.93-1.25-1.82-1.45-1.71-1.59-1.6-1.76-1.5-1.92-1.38-2.06-1.25-2.2-1.14-2.33-1-2.47-.88-2.59-.75-2.71-.6-2.82-.48-2.9-.34-3-.22-3.09,0-3.17,0-3.23.22-3.29.34-3.34.47-3.37.6-3.42.74-3.42.87-3.46,1-3.44,1.13-3.44,1.24-3.43,1.36-3.41,1.48-3.37,1.59-3.32,1.68-3.27,1.8-3.21,1.9-3.14,2-3.07,2.08-3,2.15-2.88,2.21-2.79,2.3-2.67,2.36-2.55,2.4-2.43,2.46-2.29,2.51-2.16,2.53-2,2.58-1.88L166,97.57l2.6-1.54,2.61-1.39,2.62-1.24,2.61-1,2.6-.88,2.57-.71,2.56-.53,2.52-.34,2.48-.16h2.43L194,90l2.31.37,2.25.57,2.17.75,2.1.91,2,1.09,1.92,1.28,1.82,1.43,1.72,1.6,1.6,1.76,1.49,1.91,1.39,2.06,1.25,2.2,1.13,2.35,1,2.45.88,2.6.75,2.7.61,2.81.48,2.93.34,3,.2,3.09.07,3.18-.07,3.22-.2,3.28-.34,3.35-.47,3.39-.61,3.4-.75,3.44-.87,3.44-1,3.45L216,161.39l-1.24,3.43-1.37,3.4-1.47,3.37-1.58,3.32-1.7,3.27-1.8,3.22L205,184.54l-2,3.06-2.07,3-2.14,2.89-2.23,2.78-2.28,2.66-2.36,2.55-2.41,2.43-2.46,2.3-2.5,2.16-2.54,2-2.56,1.86L176.85,214l-2.61,1.56-2.62,1.39L169,218.12l-2.61,1.06-2.6.87-2.58.71-2.55.53-2.53.35Zm35.5-131.1-2.42.15-2.45.34-2.5.52-2.51.69-2.55.86-2.56,1L171.6,95.5,169,96.86l-2.56,1.53-2.56,1.69-2.54,1.85-2.5,2-2.48,2.14L154,108.32l-2.38,2.4-2.33,2.53L147,115.9l-2.19,2.75-2.14,2.86-2,2.95-2,3-1.88,3.11L135,133.8,133.31,137l-1.57,3.29-1.48,3.34-1.34,3.38-1.23,3.4-1.12,3.41-1,3.41-.86,3.42-.74,3.4-.59,3.38-.47,3.34-.33,3.3-.22,3.25-.05,3.19.05,3.13.22,3,.34,3,.46,2.86.59,2.76.74,2.66.86,2.53,1,2.42,1.11,2.27,1.22,2.15,1.33,2,1.46,1.86,1.56,1.71,1.64,1.53,1.77,1.4,1.85,1.21,1.93,1.06,2,.89,2.11.71,2.17.54,2.25.38,2.3.2h2.35l2.41-.16,2.47-.34,2.48-.51,2.53-.69,2.55-.86,2.56-1,2.56-1.2,2.58-1.37,2.56-1.54,2.56-1.69,2.52-1.84,2.52-2,2.47-2.13,2.43-2.28,2.39-2.4,2.33-2.53,2.26-2.63,2.21-2.76,2.12-2.86,2.05-3,2-3,1.87-3.11,1.78-3.19,1.69-3.25,1.57-3.29,1.45-3.34,1.36-3.37,1.23-3.4,1.11-3.41,1-3.42.86-3.41.73-3.41.61-3.37.47-3.35.34-3.3.19-3.25.07-3.19-.07-3.12-.2-3.06-.33-2.94-.47-2.88-.61-2.76-.73-2.65-.86-2.54-1-2.4-1.1-2.3-1.22-2.14-1.35-2-1.44-1.85-1.55-1.71-1.67-1.54-1.76-1.39-1.84-1.22-1.94-1.06-2-.88-2.1-.72-2.18-.55-2.23-.36-2.31-.19Z"/><polygon class="cls-10" points="48.81 179.66 49.38 179.54 50.03 179.6 50.69 179.84 64.23 186.62 64.89 187.04 65.52 187.61 66.1 188.31 66.6 189.12 66.99 189.97 67.26 190.86 67.41 191.73 67.41 192.56 67.26 193.28 66.99 193.89 66.6 194.36 66.1 194.66 65.52 194.78 64.89 194.72 64.23 194.48 50.69 187.7 50.03 187.28 49.38 186.71 48.81 186.01 48.31 185.22 47.9 184.35 47.63 183.48 47.49 182.59 47.49 181.78 47.63 181.04 47.9 180.43 48.31 179.96 48.81 179.66"/><path class="cls-10" d="M95.05,170.79l.3,1.49.17,1.47,0,1.41-.11,1.33-.22,1.25-.37,1.14-.5,1-.6.88-.72.72-.81.56-.91.41-1,.21-1,0-1.09-.15-1.13-.3-1.13-.48-1.14-.66-1.12-.81-1.09-1-1-1.07-1-1.2-.91-1.31-.81-1.37L78.12,173l-.6-1.49L77,170l-.36-1.49L76.43,167l-.1-1.44,0-1.38.17-1.29.3-1.19.43-1.08.55-1,.67-.79.76-.65.87-.47.94-.32,1-.12,1.07,0,1.1.23,1.14.4,1.14.57,1.13.74,1.12.88,1.06,1,1,1.13,1,1.25.85,1.35.77,1.41.67,1.47.56,1.49Zm-15.52-2.24a1.48,1.48,0,0,0,.71,1.23l3.57,1.77v4.36a1.42,1.42,0,0,0,.71,1.23l2.84,1.43.14.05.13,0,.13,0,.11,0,.09-.1.07-.11,0-.15,0-.15V173.7l3.57,1.77.14.06H92l.11-.06.09-.08.06-.13,0-.14,0-.16v-3.49a1.53,1.53,0,0,0-.71-1.23l-3.57-1.79V164.1a1.41,1.41,0,0,0-.71-1.23l-2.84-1.42-.15-.06-.12,0-.13,0-.11.06-.09.08,0,.13-.05.14v4.52l-3.57-1.78-.14-.06h-.26l-.1.06-.08.09-.07.12,0,.14v3.66Z"/><path class="cls-10" d="M48.75,162.46a1.3,1.3,0,0,0,.51.53l2.85,1.43.15.05h.26l.09-.06.09-.08.07-.12,0-.14v-.16h1.42V164a1.23,1.23,0,0,0,1.07,1.3l13.88-2.87.17-.07.1-.13.08-.18,0-.21,2.77-.21,0,.75v1.75l-.14,1.67L72,167.34l-.39,1.48-.53,1.35-.65,1.22-.77,1.09-.89.93-1,.77-1.07.61-1.16.42-1.24.26-1.28.07-1.36-.1-1.37-.28-1.41-.46-1.43-.62-1.42-.8-1.41-.95-1.38-1.09L51.9,170l-1.31-1.37-1.22-1.49-1.17-1.59-1.07-1.68-.22-.37h0Z"/><path class="cls-10" d="M48.55,161.77a1.36,1.36,0,0,0,.2.69l-1.84,1-.76-1.37-.89-1.82-.77-1.84-.65-1.88-.52-1.88-.4-1.87L42.65,151l-.13-1.8v-1.75l.13-1.66.27-1.58.4-1.48.52-1.35.65-1.22.77-1.08.89-.93,1-.78,1.07-.6,1.17-.42,1.22-.26L51.9,136l1.34.09,1.38.29,1.41.45,1.42.63,1.43.79,1.41,1,1.37,1.12L63,141.53l1.28,1.38,1.24,1.48L66.7,146l1.07,1.69,1,1.75.89,1.8.77,1.86.65,1.87.53,1.89.39,1.88.27,1.84.09,1-2.77.21,0-.24-.08-.24-.1-.24-.17-.21L55.31,144.12l-.17-.17-.18-.12-.19-.06H54.6l-.14.06-.12.12-.07.18,0,.21v19.57H52.82V143a1.48,1.48,0,0,0-.71-1.24l-2.85-1.42-.13-.06h-.26l-.11.06-.09.08-.06.13,0,.14v21.08Z"/><path class="cls-10" d="M20.05,141.49l-.14-.61,2.66-.63a1.52,1.52,0,0,0,.69,1l11.4,5.7.15,0,.12,0,.13,0,.11-.05.09-.09.06-.12,0-.14,0-.16V143a1.3,1.3,0,0,0-.2-.7l2.66-.77.24.79.29,1.5.18,1.46,0,1.42-.1,1.33-.22,1.25-.38,1.14-.48,1-.61.87-.72.73-.82.55-.9.4-1,.22-1,0-1.09-.12-1.13-.31L29,153.3l-1.15-.65-1.12-.81-1.08-1-1-1.09-1-1.2-.9-1.3-.82-1.37-.7-1.45L20.55,143Z"/><path class="cls-10" d="M19.7,140l-.24-1.48-.1-1.45,0-1.36.16-1.31.3-1.19.44-1.08.54-.94.67-.8.77-.65.87-.48.94-.3,1-.14,1.06.06,1.12.23,1.11.39,1.14.57,1.14.73,1.1.87,1.07,1,1,1.15,1,1.25.84,1.34.79,1.42.66,1.46.54,1.5.2.71-2.66.77a1.39,1.39,0,0,0-.52-.53L23.26,136l-.12,0h-.26l-.11.06-.09.09-.07.11,0,.14,0,.17v3.49a1.23,1.23,0,0,0,0,.19l-2.66.63Z"/><path class="cls-10" d="M52,122.24l.54,1.19.65,1.15.74,1.08.81,1,.88.83.91.71.93.56.94.39.92.19.86,0,.81-.16.76-.32.63-.5.56-.66.42-.8.3-.94.17-1,0-1.13-.09-1.19-.24-1.24-.36-1.23-.5-1.22-.59-1.18-.71-1.11-.77-1-.84-.91-.9-.78-.93-.63-.93-.47-.93-.3-.89-.11-.85.06-.79.24-.69.42-.59.59-.49.73-.37.87-.24,1-.1,1.1,0,1.17.18,1.2.31,1.24Zm-2.35,1.6L49,122.35l-.48-1.51-.38-1.5L48,117.86l-.11-1.44,0-1.38.17-1.29.3-1.2.43-1.07.55-1,.65-.8.77-.66.86-.47,1-.3,1-.14,1.07,0,1.1.22,1.14.4,1.14.57,1.11.74,1.12.88,1.07,1,1,1.15.95,1.26.86,1.33.77,1.42.67,1.46.54,1.49.44,1.51.3,1.51.15,1.46,0,1.41L67,127.37l-.24,1.25-.36,1.13-.5,1-.61.86-.71.72-.82.58-.9.37-1,.24-1,0-1.08-.14-1.12-.32-1.15-.48L56.32,132l-1.12-.81-1.1-1-1-1.08-1-1.19-.9-1.3-.82-1.39Z"/><polygon class="cls-11" points="228.36 57.5 114.42 114.47 0.48 57.5 114.42 0.54 228.36 57.5"/><path d="M87.36,178.57l-2.84-1.43a1.42,1.42,0,0,1-.71-1.23v-4.36l-3.57-1.77a1.48,1.48,0,0,1-.71-1.23v-3.66l0-.14.07-.12.08-.09.1-.06h.26l.14.06,3.57,1.78V161.8l.05-.14,0-.13.09-.08.11-.06.13,0,.12,0,.15.06,2.84,1.42a1.41,1.41,0,0,1,.71,1.23v4.35l3.57,1.79a1.53,1.53,0,0,1,.71,1.23V175l0,.16,0,.14-.06.13-.09.08-.11.06h-.25l-.14-.06-3.57-1.77v4.36l0,.15,0,.15-.07.11-.09.1-.11,0-.13,0-.13,0Z"/><path d="M83.48,155.6l1.22.36,1.24.53,1.23.71,1.23.84,1.19,1,1.14,1.16,1.08,1.27,1,1.38.92,1.47.83,1.54.72,1.59.59,1.64.48,1.64.34,1.61.21,1.6.07,1.56L96.91,177l-.21,1.39-.34,1.28-.48,1.16-.59,1-.72.89-.83.73-.92.53-1,.39-1.08.18H89.59l-1.19-.18-1.23-.36-1.23-.52-1.24-.71L83.48,182l-1.18-1-1.15-1.15-1.08-1.28-1-1.37-.92-1.48-.83-1.54-.73-1.59L76,170.9l-.46-1.64-.35-1.64L75,166l-.08-1.56L75,163l.21-1.39.35-1.29.46-1.16.59-1,.73-.86.83-.73.92-.54,1-.39,1.08-.18H82.3Zm.2,24.72,1.12.81,1.14.66,1.13.48,1.13.3,1.09.15,1,0,1-.21.91-.41.81-.56.72-.72.6-.88.5-1,.37-1.14.22-1.25.11-1.33,0-1.41-.17-1.47-.3-1.49-.42-1.51-.56-1.49-.67-1.47-.77-1.41-.85-1.35-1-1.25-1-1.13-1.06-1-1.12-.88-1.13-.74L85.37,158l-1.14-.4-1.1-.23-1.07,0-1,.12-.94.32-.87.47-.76.65-.67.79-.55,1-.43,1.08-.3,1.19-.17,1.29,0,1.38.1,1.44.23,1.49L77,170l.5,1.51.6,1.49.73,1.44.81,1.37.91,1.31,1,1.2,1,1.07Z"/><path class="cls-12" d="M57.45,216.47l2.6,1.21,2.58,1.06,2.58.86,2.55.69,2.52.53,2.49.34,2.45.16,2.39,0,2.35-.19,2.27-.39,2.21-.55,2.15-.72,2-.92,2-1.08,1.89-1.23,1.78-1.42L96,213.23l1.58-1.73L99,209.61l1.35-2,1.23-2.17,1.12-2.31,1-2.44.87-2.55.72-2.69.61-2.79.47-2.88.34-3,.22-3.06.05-3.14-.05-3.21-.22-3.28-.34-3.32-.47-3.36-.61-3.39-.72-3.41-.87-3.44-1-3.43-1.12-3.42-1.23-3.41L99,143.48l-1.48-3.35L96,136.81l-1.69-3.25-1.78-3.19-1.89-3.14-2-3-2-3-2.15-2.87-2.21-2.78L80,112.93l-2.35-2.55L75.22,108l-2.45-2.28-2.49-2.14-2.52-2-2.55-1.86L62.63,98l-2.58-1.54-2.6-1.38-2.59-1.22-2.58-1-2.58-.87-2.55-.69-2.52-.53-2.49-.34-2.45-.16h-2.4l-2.35.21-2.26.37-2.22.55-2.14.74L26.27,93l-2,1.09-1.88,1.25-1.79,1.4L18.93,98.3,17.35,100l-1.46,1.88-1.36,2-1.24,2.18-1.11,2.31-1,2.43-.86,2.58-.74,2.67L9,118.89,8.5,121.8l-.34,3L8,127.83,7.89,131,8,134.19l.2,3.27.34,3.32L9,144.15l.62,3.38.74,3.42.86,3.43,1,3.44,1.11,3.42,1.24,3.41L15.89,168l1.46,3.35,1.58,3.31L20.62,178l1.79,3.21,1.88,3.12,2,3.05,2.05,3,2.14,2.87L32.68,196l2.26,2.64,2.35,2.54,2.4,2.43,2.45,2.28L44.63,208l2.52,2,2.55,1.85,2.58,1.71,2.58,1.54Zm57-102V254L.48,197.06V57.5Z"/><polygon class="cls-13" points="69.52 207.15 69.52 212 68.69 211.59 68.69 206.78 69.52 207.15"/><polygon points="58.39 129.12 57.45 128.73 56.52 128.18 55.61 127.46 54.73 126.63 53.92 125.66 53.18 124.58 52.52 123.43 51.99 122.24 51.56 121 51.25 119.76 51.07 118.56 51.05 117.39 51.15 116.29 51.39 115.31 51.76 114.44 52.25 113.7 52.84 113.12 53.53 112.7 54.32 112.46 55.17 112.4 56.06 112.51 56.99 112.81 57.92 113.28 58.85 113.91 59.75 114.69 60.59 115.6 61.36 116.62 62.07 117.73 62.66 118.91 63.16 120.13 63.52 121.36 63.76 122.6 63.85 123.79 63.82 124.92 63.65 125.95 63.35 126.9 62.93 127.7 62.37 128.36 61.74 128.86 60.98 129.18 60.17 129.34 59.31 129.31 58.39 129.12"/><path d="M55,143.83l.18.12.17.17,13.88,16.76.17.21.1.24.08.24,0,.24,0,.21-.08.18-.1.13-.17.07-13.88,2.87a1.23,1.23,0,0,1-1.07-1.3V144.34l0-.21.07-.18.12-.12.14-.06h.17Z"/><polygon class="cls-14" points="54.8 202.52 54.81 202.53 53.84 203.01 54.8 202.52"/><path d="M48.76,140.34l.11-.06h.26l.13.06,2.85,1.42a1.48,1.48,0,0,1,.71,1.24v21.07l0,.14-.07.12-.09.08-.09.06h-.26l-.15-.05L49.26,163a1.3,1.3,0,0,1-.51-.53,1.36,1.36,0,0,1-.2-.69V140.69l0-.14.06-.13Z"/><path d="M48.11,123.4l-.6-1.63L47,120.13l-.36-1.63-.2-1.6-.07-1.54.07-1.48.2-1.39.36-1.28.47-1.17.6-1,.71-.88.82-.72.93-.55,1-.37,1.1-.19H53.8l1.2.18,1.22.36,1.23.52,1.24.72,1.21.85,1.2,1,1.15,1.15,1.07,1.28,1,1.38.93,1.46.82,1.55.71,1.6.6,1.63.49,1.63.33,1.63.21,1.6.06,1.55-.06,1.48-.21,1.39-.33,1.28-.49,1.16-.6,1-.71.88-.82.72-.93.54-1,.38-1.07.19-1.15,0-1.2-.19-1.21-.35-1.24-.53-1.23-.71L55,132.82l-1.2-1-1.13-1.16-1.1-1.27-1-1.39-.93-1.48L48.82,125Zm-.06-9.65L47.88,115l0,1.38.11,1.44.22,1.48.38,1.5.48,1.51.61,1.49.72,1.43.82,1.39.9,1.3,1,1.19,1,1.08,1.1,1,1.12.81,1.13.65,1.15.48,1.12.32,1.08.14,1,0,1-.24.9-.37.82-.58.71-.72.61-.86.5-1,.36-1.13.24-1.25.09-1.34,0-1.41-.15-1.46-.3-1.51-.44-1.51-.54-1.49-.67-1.46-.77-1.42-.86-1.33-.95-1.26-1-1.15-1.07-1-1.12-.88L58,109.4l-1.14-.57-1.14-.4-1.1-.22-1.07,0-1,.14-1,.3-.86.47-.77.66-.65.8-.55,1-.43,1.07Z"/><path d="M49.37,136.32l-1.17.42-1.07.6-1,.78-.89.93-.77,1.08-.65,1.22-.52,1.35-.4,1.48-.27,1.58-.13,1.66v1.75l.13,1.8.27,1.85.4,1.87.52,1.88.65,1.88.77,1.84.89,1.82.76,1.37h0l.22.37,1.07,1.68,1.17,1.59,1.22,1.49L51.9,170l1.34,1.25,1.38,1.09,1.41.95,1.42.8,1.43.62,1.41.46,1.37.28,1.36.1,1.28-.07,1.24-.26,1.16-.42,1.07-.61,1-.77.89-.93.77-1.09.65-1.22.53-1.35.39-1.48.27-1.57.14-1.67v-1.75l0-.75-.09-1L72,158.72l-.39-1.88L71.06,155l-.65-1.87-.77-1.86-.89-1.8-1-1.75L66.7,146l-1.16-1.59-1.24-1.48L63,141.53l-1.36-1.23-1.37-1.12-1.41-1-1.43-.79L56,136.81l-1.41-.45-1.38-.29L51.9,136l-1.31.08Zm-.43,32.33L47.71,167l-1.17-1.74-1.07-1.81-1-1.87-.85-1.93-.75-1.95-.63-2-.5-2-.37-2-.22-1.91L41.07,148l0-1.79.17-1.74.3-1.64.44-1.51.56-1.42.69-1.28.8-1.15.91-1,1-.82,1.12-.66,1.2-.49,1.27-.31,1.33-.13,1.4,0,1.44.23,1.46.4,1.48.58,1.49.74,1.5.91,1.46,1.07,1.43,1.2,1.4,1.36,1.33,1.48,1.29,1.57,1.19,1.69,1.11,1.78,1,1.83.91,1.91.81,1.94.69,2,.56,2,.43,2,.31,1.93.16,1.91,0,1.83-.1,1.77-.24,1.69-.37,1.59-.5,1.47L72,172.26l-.74,1.2-.86,1.07-1,.91-1.07.74-1.15.58-1.25.4-1.31.22-1.36,0-1.42-.12L60.41,177l-1.48-.5-1.48-.65L56,175l-1.47-1L53,172.87l-1.42-1.28-1.36-1.4Z"/><path class="cls-13" d="M83.48,182l1.22.87,1.24.71,1.23.52,1.23.36,1.19.18h1.14l1.08-.18,1-.39.92-.53.83-.73.72-.89.59-1,.48-1.16.34-1.28.21-1.39.07-1.48L96.91,174l-.21-1.6-.34-1.61-.48-1.64-.59-1.64-.72-1.59-.83-1.54-.92-1.47-1-1.38-1.08-1.27-1.14-1.16-1.19-1-1.23-.84-1.23-.71L84.7,156l-1.22-.36-1.18-.18H81.15l-1.08.18-1,.39-.92.54-.83.73-.73.86-.59,1-.46,1.16-.35,1.29L75,163l-.08,1.47L75,166l.21,1.58.35,1.64L76,170.9l.59,1.63.73,1.59.83,1.54.92,1.48,1,1.37,1.08,1.28,1.15,1.15Zm-33.78-90,2.58.87,2.58,1,2.59,1.22,2.6,1.38L62.63,98l2.58,1.7,2.55,1.86,2.52,2,2.49,2.14L75.22,108l2.39,2.41L80,112.93l2.27,2.65,2.21,2.78,2.15,2.87,2,3,2,3,1.89,3.14,1.78,3.19L96,136.81l1.58,3.32L99,143.48l1.35,3.4,1.23,3.41,1.12,3.42,1,3.43.87,3.44.72,3.41.61,3.39.47,3.36.34,3.32.22,3.28.05,3.21-.05,3.14-.22,3.06-.34,3-.47,2.88-.61,2.79-.72,2.69-.87,2.55-1,2.44-1.12,2.31-1.23,2.17-1.35,2-1.48,1.89L96,213.23l-1.69,1.57-1.78,1.42-1.89,1.23-2,1.08-2,.92-2.15.72-2.21.55-2.27.39-2.35.19-2.39,0-2.45-.16-2.49-.34-2.52-.53-2.55-.69-2.58-.86-2.58-1.06-2.6-1.21-2.59-1.38-2.58-1.54-2.58-1.71L47.15,210l-2.52-2-2.49-2.15-2.45-2.28-2.4-2.43-2.35-2.54L32.68,196l-2.22-2.77-2.14-2.87-2.05-3-2-3.05-1.88-3.12L20.62,178l-1.69-3.26-1.58-3.31L15.89,168l-1.36-3.39-1.24-3.41-1.11-3.42-1-3.44L10.32,151l-.74-3.42L9,144.15l-.46-3.37-.34-3.32L8,134.19,7.89,131,8,127.83l.2-3.07.34-3L9,118.89l.62-2.78.74-2.67.86-2.58,1-2.43,1.11-2.31,1.24-2.18,1.36-2L17.35,100l1.58-1.73,1.69-1.58,1.79-1.4,1.88-1.25,2-1.09,2.05-.89,2.14-.74,2.22-.55,2.26-.37,2.35-.21h2.4l2.45.16,2.49.34,2.52.53Zm-2,75.09,1.23,1.63,1.31,1.54,1.36,1.4L53,172.87,54.49,174,56,175l1.49.83,1.48.65,1.48.5,1.46.31,1.42.12,1.36,0,1.31-.22,1.25-.4,1.15-.58,1.07-.74,1-.91.86-1.07.74-1.2.62-1.34.5-1.47.37-1.59.24-1.69.1-1.77,0-1.83-.16-1.91-.31-1.93-.43-2-.56-2-.69-2-.81-1.94L69.92,149l-1-1.83-1.11-1.78-1.19-1.69-1.29-1.57L64,140.63l-1.4-1.36-1.43-1.2L59.69,137l-1.5-.91-1.49-.74-1.48-.58-1.46-.4-1.44-.23-1.4,0-1.33.13-1.27.31-1.2.49-1.12.66-1,.82-.91,1-.8,1.15-.69,1.28L42,141.34l-.44,1.51-.3,1.64-.17,1.74,0,1.79.12,1.89.22,1.91.37,2,.5,2,.63,2,.75,1.95.85,1.93,1,1.87,1.07,1.81Zm-.2-45.25.6,1.63.71,1.59.82,1.53.93,1.48,1,1.39,1.1,1.27,1.13,1.16,1.2,1,1.22.87,1.23.71,1.24.53,1.21.35,1.2.19,1.15,0,1.07-.19,1-.38.93-.54.82-.72.71-.88.6-1,.49-1.16.33-1.28.21-1.39.06-1.48-.06-1.55-.21-1.6-.33-1.63L67.39,120l-.6-1.63-.71-1.6-.82-1.55-.93-1.46-1-1.38-1.07-1.28-1.15-1.15-1.2-1-1.21-.85-1.24-.72-1.23-.52L55,106.47l-1.2-.18H52.67l-1.1.19-1,.37-.93.55-.82.72-.71.88-.6,1L47,111.21l-.36,1.28-.2,1.39-.07,1.48.07,1.54.2,1.6.36,1.63Zm-29.3,17.38.33,1.63.47,1.63.62,1.63.71,1.6.83,1.54.92,1.48,1,1.37,1.07,1.28,1.16,1.15,1.18,1,1.22.87L29,155l1.23.54,1.23.35,1.19.17h1.13l1.09-.2,1-.37.91-.55.83-.71.72-.89.59-1,.47-1.18.34-1.28.22-1.4L40,147l-.07-1.54-.22-1.6-.34-1.63-.47-1.63L38.32,139l-.72-1.59-.83-1.55-.91-1.48-1-1.37-1.09-1.28-1.13-1.15-1.19-1-1.23-.87L29,128l-1.24-.54-1.22-.35-1.18-.17H24.17l-1.07.2-1,.36-.92.56-.83.71-.71.88-.62,1-.47,1.17-.33,1.29-.21,1.4L17.94,136l.06,1.55Z"/><path d="M35.38,143v3.49l0,.16,0,.14-.06.12-.09.09-.11.05-.13,0-.12,0-.15,0-11.4-5.7a1.52,1.52,0,0,1-.69-1,1.23,1.23,0,0,1,0-.19v-3.49l0-.17,0-.14.07-.11.09-.09.11-.06h.26l.12,0,11.4,5.71a1.39,1.39,0,0,1,.52.53A1.3,1.3,0,0,1,35.38,143Z"/><path d="M19.55,134.38l-.16,1.31,0,1.36.1,1.45L19.7,140l.21.9.14.61.5,1.51.62,1.48.7,1.45.82,1.37.9,1.3,1,1.2,1,1.09,1.08,1,1.12.81,1.15.65,1.13.49,1.13.31,1.09.12,1,0,1-.22.9-.4.82-.55.72-.73.61-.87.48-1,.38-1.14.22-1.25.1-1.33,0-1.42-.18-1.46-.29-1.5-.24-.79-.2-.71-.54-1.5-.66-1.46-.79-1.42-.84-1.34-1-1.25-1-1.15-1.07-1-1.1-.87-1.14-.73-1.14-.57-1.11-.39-1.12-.23-1.06-.06-1,.14-.94.3-.87.48-.77.65-.67.8-.54.94-.44,1.08Zm-1.34,4.77-.21-1.6L17.94,136l.06-1.47.21-1.4.33-1.29.47-1.17.62-1,.71-.88.83-.71.92-.56,1-.36,1.07-.2h1.16l1.18.17,1.22.35L29,128l1.23.7,1.23.87,1.19,1,1.13,1.15L34.84,133l1,1.37.91,1.48.83,1.55.72,1.59.59,1.63.47,1.63.34,1.63.22,1.6L40,147l-.07,1.48-.22,1.4-.34,1.28-.47,1.18-.59,1-.72.89-.83.71-.91.55-1,.37-1.09.2H32.62l-1.19-.17-1.23-.35L29,155l-1.24-.7-1.22-.87-1.18-1-1.16-1.15L23.1,150l-1-1.37-.92-1.48-.83-1.54-.71-1.6L19,142.41l-.47-1.63Z"/><path class="cls-1" d="M75.22,221.56l-2.47-.16-2.52-.34-2.52-.53-2.57-.7L62.56,219,60,217.9l-2.61-1.21-2.6-1.38-2.6-1.56L49.57,212,47,210.19l-2.53-2L42,206l-2.45-2.29-2.41-2.43-2.35-2.55-2.28-2.65-2.22-2.77-2.14-2.88-2.06-3-2-3.06-1.88-3.13-1.8-3.21-1.7-3.26-1.58-3.33-1.46-3.36-1.37-3.39-1.24-3.41L12,157.9l-1-3.45L10.09,151l-.75-3.43-.61-3.39-.46-3.38-.35-3.33-.2-3.28L7.65,131l.07-3.15.2-3.07.34-3,.47-2.91.61-2.8.75-2.69.87-2.59,1-2.44L13.07,106l1.25-2.19,1.37-2,1.47-1.88,1.59-1.75,1.7-1.6,1.82-1.41,1.89-1.26,2-1.1,2.08-.9,2.15-.75,2.24-.55,2.28-.38L37.27,90h2.42l2.46.16,2.51.35L47.2,91l2.56.69,2.59.87,2.6,1,2.61,1.23,2.6,1.39,2.6,1.54,2.58,1.71,2.56,1.87,2.53,2,2.5,2.15,2.45,2.28,2.4,2.42,2.35,2.55,2.28,2.66,2.22,2.79,2.16,2.87,2,3,2,3.06,1.9,3.14,1.78,3.21,1.69,3.25L97.76,140l1.49,3.36,1.35,3.41,1.24,3.42,1.12,3.43,1,3.43.87,3.45.72,3.42.62,3.4.47,3.36L107,174l.22,3.28,0,3.22,0,3.15-.22,3.08-.34,3-.47,2.89-.62,2.8-.72,2.7-.87,2.57-1,2.46-1.13,2.32-1.24,2.18-1.36,2.05-1.49,1.91-1.59,1.74L94.44,215l-1.79,1.44-1.91,1.24-2,1.09-2.07.93-2.17.73-2.23.56-2.3.39-2.36.19Zm-4.9-1,2.48.33,2.43.16,2.38,0,2.33-.19,2.25-.38,2.19-.56,2.14-.71,2-.91,1.95-1.07L92.37,216l1.76-1.41,1.68-1.56,1.56-1.71,1.47-1.88,1.34-2,1.22-2.16,1.12-2.29,1-2.43.86-2.54.72-2.67.61-2.78.47-2.87.33-3,.22-3.05,0-3.13,0-3.2-.22-3.26-.33-3.32-.47-3.34-.62-3.38-.72-3.41-.86-3.43-1-3.42-1.12-3.41L100.15,147l-1.35-3.39-1.47-3.35-1.58-3.3-1.68-3.24-1.78-3.2-1.89-3.12-2-3-2-2.94-2.15-2.87L82,115.73l-2.27-2.65-2.34-2.54-2.38-2.4-2.45-2.27-2.48-2.14-2.51-2-2.54-1.86L62.5,98.18l-2.58-1.53-2.58-1.38-2.58-1.22-2.57-1-2.57-.86-2.53-.69L44.58,91l-2.47-.34-2.44-.16H37.29L35,90.67,32.72,91l-2.21.54-2.11.74-2,.88-2,1.08-1.85,1.24-1.78,1.39-1.68,1.57-1.56,1.72-1.45,1.85-1.35,2-1.23,2.15-1.1,2.3-1,2.42-.86,2.56-.74,2.66-.61,2.77-.46,2.89-.34,3-.2,3.06L8.13,131l.07,3.21.2,3.26.34,3.32.46,3.36.62,3.37.73,3.41.87,3.43,1,3.43,1.11,3.41,1.23,3.4L16.11,168l1.46,3.34,1.57,3.31,1.69,3.25,1.79,3.2,1.87,3.12,2,3,2.05,3L30.65,193l2.21,2.76,2.27,2.63L37.46,201l2.4,2.42,2.44,2.28,2.48,2.13,2.52,2,2.54,1.83,2.57,1.71L55,214.89l2.59,1.37,2.58,1.2,2.57,1,2.56.86,2.55.69Z"/><polygon class="cls-10" points="58.6 193.2 58 193.03 57.35 192.76 56.71 192.4 56.09 191.96 55.5 191.44 54.94 190.87 54.42 190.24 53.94 189.54 53.51 188.82 53.13 188.07 52.8 187.28 52.54 186.48 52.35 185.69 52.22 184.9 52.16 184.14 52.18 183.38 52.27 182.67 52.44 181.95 52.7 181.32 53.02 180.76 53.42 180.27 53.91 179.85 54.46 179.56 55.06 179.36 55.69 179.28 56.33 179.31 56.98 179.44 57.59 179.65 58.23 179.97 58.86 180.38 59.46 180.85 60.04 181.39 60.58 182 61.09 182.67 61.54 183.37 61.95 184.12 62.3 184.88 62.59 185.67 62.82 186.46 62.99 187.27 63.07 188.05 63.09 188.81 63.05 189.54 62.92 190.24 62.7 190.93 62.41 191.54 62.04 192.06 61.6 192.51 61.08 192.87 60.51 193.11 59.9 193.25 59.25 193.28 58.6 193.2"/><path class="cls-15" d="M55.72,180l.52,0,.55.1.56.2.56.28.55.37.55.44.53.49.5.57.47.62.43.66.38.7.33.72.26.74.22.74.15.75.07.72,0,.7,0,.66-.12.61-.18.56-.24.51-.3.43-.35.35-.41.29-.44.18-.49.12-.52,0-.53-.07-.56-.16-.56-.23-.56-.33-.56-.4L56,190.9l-.51-.53-.48-.59-.45-.64-.4-.69-.36-.71-.3-.73-.24-.75-.18-.74-.11-.73-.06-.71,0-.68.08-.64.15-.59.21-.53.27-.47.33-.4.38-.32.42-.23.48-.15.5-.07m-.07-1.44h-.12l-.5.07-.13,0-.12,0-.48.15-.13,0-.11.06-.43.24-.13.07-.12.09-.38.33-.09.08-.09.1-.32.4-.07.09-.06.1-.27.47L52,181l0,.09-.22.53,0,.1,0,.09-.14.6,0,.07v.08l-.09.64v.15l0,.68v.16l.06.7v.1l.11.73v.07l0,.07.18.74v0l0,0,.23.75,0,.05,0,.06.3.73,0,.05,0,0,.36.71,0,0,0,0,.4.69,0,0,0,0,.44.65,0,.05,0,0,.49.58,0,.05,0,0,.52.53,0,0,0,0,.54.48.06,0,.05.05.56.39.06.05.06,0,.56.32.08,0,.08,0,.57.24.08,0,.08,0,.56.16.1,0,.1,0,.53.07.13,0h.13l.51,0H60l.12,0,.49-.11.12,0,.11-.05.44-.18.15-.06.12-.09.41-.28.11-.08.09-.09.35-.36.09-.09.07-.1L63,192l.06-.1,0-.1.25-.51.05-.09,0-.11.17-.56,0-.07v-.08l.12-.62,0-.09v-.08l.05-.66v-1l-.08-.72v-.07l0-.06-.14-.75,0-.06,0-.06-.21-.75,0,0v0l-.27-.74,0-.05,0-.06-.34-.72v0l0,0-.38-.71,0,0,0,0-.43-.66,0,0,0,0-.46-.63,0,0,0,0-.5-.57,0,0,0,0-.53-.5,0,0-.05,0-.55-.44,0,0-.05,0-.55-.37-.07,0-.09,0L58,179l-.08,0-.08,0-.56-.2-.1,0-.1,0-.54-.11-.11,0h-.11l-.53,0Z"/><polygon class="cls-15" points="58.6 212 58 211.83 57.35 211.57 56.71 211.2 56.09 210.77 55.5 210.25 54.94 209.68 54.42 209.05 53.94 208.35 53.51 207.63 53.13 206.88 52.8 206.09 52.54 205.29 52.35 204.5 52.22 203.7 52.16 202.95 52.18 202.19 52.27 201.47 52.44 200.75 52.7 200.13 53.02 199.56 53.42 199.08 53.91 198.66 54.46 198.36 55.06 198.17 55.69 198.09 56.33 198.12 56.98 198.25 57.59 198.46 58.23 198.78 58.86 199.19 59.46 199.66 60.04 200.2 60.58 200.81 61.09 201.48 61.54 202.18 61.95 202.93 62.3 203.69 62.59 204.48 62.82 205.27 62.99 206.08 63.07 206.86 63.09 207.62 63.05 208.35 62.92 209.05 62.7 209.74 62.41 210.34 62.04 210.87 61.6 211.31 61.08 211.68 60.51 211.92 59.9 212.06 59.25 212.09 58.6 212"/><path class="cls-16" d="M55.72,198.81l.52,0,.55.11.56.2.56.28.55.37.55.43.53.5.5.57.47.62.43.66.38.7.33.72.26.74.22.74.15.75.07.72,0,.69,0,.66-.12.62-.18.56-.24.51-.3.43-.35.35-.41.29-.44.18-.49.11-.52,0-.53-.07-.56-.16-.56-.24-.56-.32-.56-.4-.54-.47-.51-.53-.48-.59-.45-.65-.4-.68-.36-.71-.3-.73-.24-.75-.18-.74-.11-.73-.06-.71,0-.68.08-.64.15-.59.21-.53.27-.47.33-.4.38-.32.42-.23.48-.15.5-.07m-.07-1.45-.12,0-.5.07H54.9l-.12,0-.48.15-.13,0-.11.06-.43.23-.13.07-.12.1-.38.32-.09.09-.09.1-.32.39-.07.09-.06.11-.27.47-.06.08,0,.1-.22.53,0,.09,0,.1-.14.59,0,.08v.08l-.09.63v.16l0,.68V203l.06.71v.1l.11.73v.07l0,.06.18.75v0l0,0,.23.74,0,.06,0,.06.3.73,0,.05,0,0,.36.71,0,0,0,0,.4.69,0,0,0,0,.44.65,0,.05,0,0,.49.59,0,0,0,0,.52.53,0,0,0,0,.54.48.06,0,.05,0,.56.4.06,0,.06,0,.56.32.08,0,.08,0,.57.24.08,0,.08,0,.56.15.1,0,.1,0,.53.07h.26l.51,0H60l.12,0,.49-.12.12,0,.11-.05.44-.19.15-.05.12-.09.41-.29.11-.07.09-.1.35-.35.09-.09.07-.1.3-.43.06-.09,0-.1.25-.51.05-.1,0-.1.17-.56,0-.08v-.08l.12-.61,0-.09v-.08l.05-.66v-1l-.08-.73V206l0-.06-.14-.75,0-.06,0-.06-.21-.75,0,0v0L63,203.5l0-.06,0-.05-.34-.72v0l0,0-.38-.7,0,0,0-.05-.43-.66,0,0,0,0-.46-.62,0,0,0,0-.5-.57,0,0,0-.05-.53-.49,0-.05-.05,0-.55-.43,0,0-.05,0-.55-.37-.07-.05-.09,0-.56-.28-.08,0-.08,0-.56-.2-.1,0-.1,0-.54-.11-.11,0h-.11l-.53,0Z"/><path class="cls-17" d="M59.59,204.35l-.07-.17-.06-.18,0-.17,0-.18,0-.16v-.17l0-.15,0-.14.05-.12.07-.11.07-.1.09-.07.1-.06.12,0h.24l.13,0,.13,0,.13.06.14.09.13.1L61,203l.12.14.11.14.1.16.09.17.08.17.06.17,0,.18,0,.17,0,.17v.33l0,.14,0,.14-.06.12-.07.1-.08.08-.1.07-.1,0-.12,0h-.25l-.13,0-.13-.06-.14-.07-.13-.1-.13-.11L60,205l-.11-.14-.11-.16-.09-.16Z"/><path class="cls-5" d="M117.76,28.29l4.41-1.84.48,4.47.38,4,0,0a12.14,12.14,0,0,1-1.87.41l-2.87-1.55Z"/><path class="cls-5" d="M107.92,32.39l4.41-1.84.44,4.46A9.37,9.37,0,0,1,107.92,32.39Z"/><path class="cls-5" d="M46.9,57.81,51.31,56l.46,4.46A9.4,9.4,0,0,1,46.9,57.81Z"/><path class="cls-6" d="M122.65,30.92l-.48-4.47a9.26,9.26,0,0,1,4.89,2.63Z"/><path class="cls-5" d="M114.61,34.27l-1.8.75h0l-.44-4.46-4-2.14a11.18,11.18,0,0,1,5.43-2.26Z"/><path class="cls-5" d="M53.59,59.68l-1.8.75h0L51.31,56l-4-2.14a11,11,0,0,1,5.43-2.27Z"/><polygon class="cls-6" points="114.61 34.27 113.79 26.15 117.76 28.29 118.31 33.77 117.22 33.18 114.61 34.27"/><polygon class="cls-6" points="53.59 59.68 52.79 51.56 56.74 53.71 57.29 59.19 56.2 58.6 53.59 59.68"/><path class="cls-6" d="M62,60.31l-.85-8.44A9.12,9.12,0,0,1,66,54.5l-4.41,1.83.4,4Z"/><path class="cls-5" d="M62,60.31h0v0a12.4,12.4,0,0,1-1.87.41l-2.88-1.54-.55-5.48,4.41-1.84Z"/><path class="cls-6" d="M65.6,58.47A10.58,10.58,0,0,1,62,60.32v0l-.4-4Z"/><path class="cls-6" d="M126.62,33.05a10.74,10.74,0,0,1-3.57,1.86l0,0-.38-4Z"/><path class="cls-11" d="M104.84,43.22v0a67.33,67.33,0,0,1,22.41.8L126,49.53h0a58.88,58.88,0,0,0-19.62-.68Z"/><polygon class="cls-6" points="104.84 43.22 106.4 48.86 105.2 46.98 104.84 43.22"/><path class="cls-5" d="M88.36,56.37,84.2,51.79c5.11-4.8,12.45-7.86,20.63-8.59v0L105.2,47l1.2,1.88.61,1.51a51.75,51.75,0,0,0-13.79,3.57,26.86,26.86,0,0,0-5.1,2.7h0Z"/><path class="cls-6" d="M88.11,56.63a7.24,7.24,0,0,0-.8,9L83,62.43a8.33,8.33,0,0,1,1.2-10.64l4.16,4.58Z"/><polygon class="cls-7" points="127.63 47.78 126.02 49.53 127.24 44 127.63 47.78"/><path class="cls-7" d="M83,62.43l4.31,3.24-1,.08A23.67,23.67,0,0,1,83,62.43Z"/><polygon class="cls-8" points="101.24 59.83 100.49 59.74 99.76 59.58 99.15 59.32 98.7 59 98.43 58.65 98.37 58.26 98.52 57.89 98.86 57.55 99.38 57.27 100.06 57.05 100.8 56.94 101.61 56.91 102.39 56.99 103.12 57.16 103.74 57.41 104.19 57.73 104.46 58.09 104.51 58.48 104.37 58.85 104.02 59.19 103.5 59.47 102.83 59.69 102.08 59.8 101.27 59.83 101.24 59.83"/><path class="cls-5" d="M106.4,48.86a58.88,58.88,0,0,1,19.62.68h0l1.61-1.75L127.24,44c7.59,1.21,14.34,4.84,18.54,10l-3,3.65A57.86,57.86,0,0,0,107,50.37Z"/><path class="cls-8" d="M97.59,58.59a3.9,3.9,0,0,0,3.51,1.62h.11l.1,0,.08,0,.06,0,0,.05v0l0,0,0,.05c-3.63,1.64-4.66,5.34-2.31,8.24A6.69,6.69,0,0,0,100.34,70l0,.05,0,.06v0l0,.06-.07,0-.09,0-.1,0H100a5.7,5.7,0,0,0-3.41.85l0,.11a28.61,28.61,0,0,1-3-1.11l.06-.08c-.13-.16-.26-.3-.38-.46-3-4-1.36-9,3.68-11.08l.09,0,.11,0h.23l.1,0,.09,0,.07,0Z"/><path class="cls-8" d="M105.29,58.14l-.15-.31-.25-.28-.34-.27-.44-.23-.51-.21-.57-.15-.62-.11-.11,0-.1,0-.06,0,0-.06v-.05l0,0,.06,0,.1,0a45.31,45.31,0,0,1,27.75,1l.09.05.05,0v.12l-.05,0-.08.05-.09,0-.11,0a3.43,3.43,0,0,0-3.33,1.63l0,0,0,0-.07,0-.1,0h-.21l-.12,0-.08,0a33.52,33.52,0,0,0-19.9-.7h-.32l-.11,0-.08,0-.08-.05,0,0v-.05Z"/><polygon class="cls-8" points="118.99 66.1 118.76 66.49 118.33 66.86 117.75 67.15 117.04 67.39 116.24 67.55 115.39 67.6 114.52 67.57 113.68 67.45 112.9 67.24 112.25 66.96 111.75 66.62 111.41 66.23 111.26 65.82 111.31 65.41 111.56 65.02 111.97 64.65 112.55 64.36 113.26 64.11 114.07 63.97 114.93 63.9 115.8 63.93 116.62 64.05 117.4 64.27 118.05 64.54 118.55 64.88 118.89 65.28 119.04 65.69 118.99 66.1"/><polygon class="cls-8" points="131.8 60.71 131.04 60.83 130.24 60.85 129.45 60.78 128.73 60.6 128.12 60.35 127.67 60.03 127.4 59.67 127.34 59.29 127.48 58.92 127.83 58.58 128.35 58.29 129.01 58.08 129.77 57.96 129.9 57.96 130.57 57.94 131.36 58.02 132.08 58.19 132.69 58.45 133.14 58.77 133.41 59.12 133.47 59.51 133.33 59.88 132.98 60.22 132.46 60.5 131.8 60.71"/><path class="cls-8" d="M102.9,71.83l.06.38-.14.38,0,.06-.17,0-5.34-1.3,0,0,.52-.28.66-.21.76-.12.8,0,.79.08.73.16.6.26.45.32Z"/><path d="M100.49,59.75l.75.08,0,.39h-.11a3.9,3.9,0,0,1-3.51-1.62l0-.05-.07,0-.09,0-.1,0h-.23l-.11,0-.09,0c-5,2.09-6.69,7-3.68,11.08.12.16.25.3.38.46l-.06.08a29.23,29.23,0,0,1-7.18-4.36l1-.08a7.24,7.24,0,0,1,.8-9h0a26.86,26.86,0,0,1,5.1-2.7A51.75,51.75,0,0,1,107,50.37a57.86,57.86,0,0,1,35.77,7.26l-.54.65a7.19,7.19,0,0,1-.49,8.67,28.41,28.41,0,0,1-4.2,2.54c2.21-3.14,1.1-7.2-2.64-9.65a.63.63,0,0,0-.73,0h0a4.62,4.62,0,0,1-3.87,1.35l-.08-.4.8,0,.76-.12.66-.21.52-.28.35-.34.14-.37-.06-.39-.27-.35-.45-.32-.61-.26-.72-.17-.79-.08-.67,0-.05-.39.11,0,.09,0,.08-.05.05,0v-.12l-.05,0-.09-.05a45.31,45.31,0,0,0-27.75-1l-.1,0-.06,0,0,0v.05l0,.06.06,0,.1,0,.11,0,0,.41-.78-.08-.81,0-.74.11-.68.22-.52.28-.35.34-.14.37.06.39.27.35.45.32.61.26Z"/><path class="cls-9" d="M109.94,73.61c-2.15-.18-4.28-.44-6.4-.82l.13-.18.11-.31,0,0,0,0,.08,0,.09,0,.1,0h.23l.1,0A27.87,27.87,0,0,0,109.94,73.61Z"/><path d="M115.39,67.6l.85-.06.8-.15.72-.24.57-.29.43-.37.23-.39.05-.41-.15-.41-.34-.4-.5-.34-.65-.28-.78-.21-.82-.12-.87,0-.86.07-.81.14-.72.24-.57.3-.41.36-.25.39,0,.42.14.41.35.39.5.34.65.28.78.21.84.12Zm7.29-2.23.06.58-.13.58-.34.54-.52.53-.69.47-.83.42-1,.33-1.08.27-1.16.17-1.2.09h-1.23l-1.2-.1-1.16-.19-1.09-.28-1-.35L109.3,68l-.69-.48-.53-.52-.34-.57-.16-.57,0-.58.23-.57.42-.54.61-.5.75-.45.91-.37,1-.3,1.13-.22,1.19-.13,1.21,0,1.22.06,1.18.14,1.13.24,1,.32.93.38.78.46.61.5.44.55Z"/><path class="cls-8" d="M122.74,66l-.06-.58-.26-.57-.44-.55-.61-.5-.78-.46-.93-.38-1-.32-1.13-.24-1.18-.14-1.22-.06-1.21,0-1.19.13-1.13.22-1,.3-.91.37-.75.45-.61.5-.42.54-.23.57,0,.58.16.57.34.57.53.52.69.48.86.43,1,.35,1.09.28,1.16.19,1.2.1h1.23l1.2-.09,1.16-.17,1.08-.27,1-.33.83-.42.69-.47.52-.53.34-.54ZM104.8,61.36l1.17-.55,1.29-.48,1.41-.4,1.51-.31,1.59-.22,1.62-.14,1.66,0,1.66.07,1.64.15,1.58.24,1.51.34,1.44.41,1.3.5,1.19.56,1,.63.87.69.7.71.5.76.31.78.11.78-.09.8-.28.77-.48.75-.68.71-.85.67-1,.61-1.16.56-1.3.47-1.41.39-1.51.32-1.58.22-1.63.13-1.65,0-1.67-.07L112,72.07l-1.6-.25-1.5-.34-1.44-.41-1.3-.5L104.93,70l-1-.63L103,68.7l-.69-.72-.51-.76-.31-.77-.11-.79.09-.79.28-.77.49-.74.67-.73.85-.66Z"/><path class="cls-6" d="M142.78,57.63l3-3.65a8.28,8.28,0,0,1-1.19,10.64l-1.36,1.2s0,0,0,0c-.46.38-.93.75-1.43,1.1a7.19,7.19,0,0,0,.49-8.67Z"/><path class="cls-8" d="M130.56,71.94l-4.76,1A4.12,4.12,0,0,1,130.56,71.94Z"/><path class="cls-8" d="M131.2,62.74a7,7,0,0,0-1.23-1.2l-.05,0,0,0,0-.06,0,0,.07,0,.08,0,.1,0h.11a4.62,4.62,0,0,0,3.87-1.35h0a.63.63,0,0,1,.73,0c3.74,2.45,4.85,6.51,2.64,9.65a36.58,36.58,0,0,1-6.13,2.37l-.09-.13a7,7,0,0,0-2.13-.44h-.11l-.1,0-.08,0-.06,0,0-.06v-.05l0,0,.06,0C132.52,69.33,133.55,65.64,131.2,62.74Z"/><path d="M125.8,72.94l4.76-1A4.12,4.12,0,0,0,125.8,72.94ZM107.26,60.33l-1.29.48-1.17.55-1,.61-.85.66-.67.73-.49.74-.28.77-.09.79.11.79.31.77.51.76.69.72.87.68,1,.63,1.19.56,1.3.5,1.44.41,1.5.34,1.6.25,1.63.14,1.67.07,1.65,0,1.63-.13,1.58-.22,1.51-.32,1.41-.39,1.3-.47,1.16-.56,1-.61.85-.67.68-.71.48-.75.28-.77.09-.8-.11-.78-.31-.78-.5-.76-.7-.71-.87-.69-1-.63-1.19-.56-1.3-.5L121.44,60l-1.51-.34-1.58-.24-1.64-.15-1.66-.07-1.66,0-1.62.14-1.59.22-1.51.31Zm-2.12-2.5.15.31,0,.3v.05l0,0,.08.05.08,0,.11,0H106a33.52,33.52,0,0,1,19.9.7l.08,0,.12,0h.21l.1,0,.07,0,0,0,0,0a3.43,3.43,0,0,1,3.33-1.63l.05.39h-.13l-.76.12-.66.21-.52.29-.35.34-.14.37.06.38.26.36.46.32.61.25.72.18.79.07.08.4h-.11l-.1,0-.08,0-.07,0,0,0,0,.06,0,0,.05,0a7,7,0,0,1,1.23,1.2c2.35,2.9,1.32,6.59-2.29,8.24l-.06,0,0,0v.05l0,.06.06,0,.08,0,.1,0h.11a7,7,0,0,1,2.13.44l.09.13A40,40,0,0,1,124,73.21c-.7.1-1.39.18-2.09.24a66.67,66.67,0,0,1-11.91.16s0,0,0,0a27.87,27.87,0,0,1-5.49-1.44l-.1,0h-.23l-.1,0-.09,0-.08,0,0,0,0,0-.11.31-.13.18c-.26,0-.5-.08-.76-.14l0-.06.14-.38-.06-.38-.27-.36-.45-.32-.6-.26-.73-.16-.79-.08-.8,0-.76.12-.66.21-.52.28,0,0,5.34,1.3c-.35-.06-.72-.13-1.07-.21a33,33,0,0,1-5-1.19l0-.11a5.7,5.7,0,0,1,3.41-.85h.11l.1,0,.09,0,.07,0,0-.06v0l0-.06,0-.05a6.69,6.69,0,0,1-1.24-1.19c-2.35-2.9-1.32-6.6,2.31-8.24l0-.05,0,0v0l0-.05-.06,0-.08,0-.1,0,0-.39h0l.81,0,.75-.11.67-.22.52-.28.35-.34.14-.38-.05-.38-.27-.35-.45-.33-.62-.25-.73-.17,0-.41.62.11.57.15.51.21.44.23.34.27Z"/><path class="cls-5" d="M172.61,57.82,177,56l.84,8.44h0a13.81,13.81,0,0,1-1.85.41l-2.86-1.54Z"/><path class="cls-5" d="M162.76,61.92l4.42-1.83.43,4.45A9.19,9.19,0,0,1,162.76,61.92Z"/><path class="cls-5" d="M111.59,83.24,116,81.4l.84,8.45h0a12.68,12.68,0,0,1-1.85.4l-2.87-1.53Z"/><path class="cls-5" d="M101.75,87.34l4.41-1.84L106.6,90A9.29,9.29,0,0,1,101.75,87.34Z"/><path class="cls-5" d="M107.62,81.1l.82,8.12-1.82.75s0,0,0,0l-.44-4.46-4-2.13A11.05,11.05,0,0,1,107.62,81.1Z"/><path class="cls-5" d="M168.64,55.69l.8,8.12-1.8.75,0,0-.43-4.45-4-2.14A11,11,0,0,1,168.64,55.69Z"/><polygon class="cls-6" points="169.44 63.81 168.64 55.69 172.61 57.82 173.15 63.31 172.05 62.72 169.44 63.81"/><polygon class="cls-6" points="108.44 89.22 107.62 81.11 111.59 83.24 112.13 88.73 111.04 88.14 108.44 89.22"/><path class="cls-6" d="M177.88,64.42l-.4-4,4,2.12a10.26,10.26,0,0,1-3.55,1.85Z"/><path class="cls-6" d="M116.86,89.84l-.39-4,4,2.13a10.39,10.39,0,0,1-3.56,1.85Z"/><path class="cls-6" d="M116.47,85.87l.39,4h0L116,81.4A9.28,9.28,0,0,1,120.88,84Z"/><path class="cls-6" d="M177.48,60.46l.4,4h0L177,56a9.23,9.23,0,0,1,4.88,2.63Z"/><path class="cls-6" d="M114.34,92.59l-3.75-.09-3.74-.19-3.71-.26-3.68-.37-3.65-.46-3.59-.53-3.54-.64-3.47-.72-3.38-.8-3.29-.88-3.21-1-3.08-1-3-1.12L66.4,83.33l-2.72-1.26L61.1,80.75l-2.45-1.39-2.29-1.44-2.13-1.5-2-1.55-1.81-1.59-1.63-1.64L47.39,70l-1.28-1.72L45,66.49l-.89-1.76-.7-1.8L43,61.12l-.31-1.82-.1-1.83.11-1.82.3-1.82.5-1.81.7-1.78L45,48.49l1.08-1.74,1.28-1.69,1.47-1.65,1.62-1.6,1.82-1.57,2-1.51,2.14-1.46,2.31-1.4,2.43-1.33,2.6-1.26,2.75-1.21L69.35,31l3-1.06,3.1-1,3.21-.9,3.29-.81,3.4-.73,3.46-.65,3.55-.55,3.59-.48,3.64-.37,3.69-.28,3.71-.2,3.74-.1h3.75l3.76.08,3.73.18,3.71.28,3.69.36,3.64.45,3.6.54,3.52.64,3.47.71,3.39.81,3.3.88,3.19,1,3.1,1,3,1.12,2.86,1.19,2.72,1.25,2.6,1.33,2.43,1.38,2.29,1.44,2.14,1.5,2,1.56,1.8,1.58L180,44.78l1.44,1.68,1.26,1.71,1.09,1.75.88,1.78.69,1.79.51,1.81.3,1.82.09,1.82-.09,1.83-.3,1.83-.5,1.79-.7,1.78-.9,1.77-1.09,1.72-1.27,1.69L179.94,73l-1.64,1.61-1.8,1.56-2,1.51-2.14,1.45-2.3,1.4-2.45,1.33L165,83.15l-2.73,1.19-2.86,1.14-3,1-3.1,1-3.19.9-3.3.82-3.38.73L140,90.6l-3.53.55-3.6.47-3.64.37-3.69.3-3.73.18-3.73.1ZM66.87,33l-2.7,1.19L61.6,35.4l-2.39,1.31-2.28,1.37-2.09,1.43L52.92,41l-1.78,1.52-1.58,1.56-1.42,1.6L46.92,47.3l-1,1.66L45,50.63l-.67,1.7L43.88,54l-.27,1.71-.11,1.73.1,1.72.29,1.71.47,1.72L45,64.34,45.87,66l1,1.68,1.23,1.66L49.54,71l1.58,1.6,1.76,1.56,1.93,1.51,2.09,1.47,2.24,1.42,2.42,1.36,2.54,1.3,2.69,1.25,2.82,1.17,3,1.11,3.06,1,3.17,1,3.26.88,3.35.79,3.45.72,3.51.63,3.57.53,3.62.46,3.66.36,3.69.26,3.72.19,3.72.08h3.71l3.72-.1,3.69-.18,3.67-.29,3.62-.38,3.57-.46,3.51-.55,3.45-.64,3.36-.72,3.26-.82,3.17-.89,3.07-1,3-1,2.82-1.12,2.7-1.18L167.18,81l2.41-1.32,2.26-1.37,2.1-1.42,1.94-1.48,1.76-1.52,1.59-1.56,1.4-1.6,1.23-1.63,1-1.66.85-1.68.67-1.7.47-1.69.29-1.73.08-1.72-.08-1.72-.29-1.72-.48-1.71-.66-1.7-.84-1.71-1-1.67-1.22-1.65-1.4-1.62-1.59-1.61-1.76-1.55L174,40.76l-2.09-1.47-2.25-1.41-2.4-1.36-2.56-1.31L162,34l-2.83-1.18-2.93-1.1-3.07-1L150,29.7l-3.27-.88-3.36-.8-3.44-.71-3.49-.63-3.58-.54-3.62-.45-3.67-.36-3.68-.27-3.71-.18-3.74-.08h-3.72l-3.71.1-3.69.2-3.66.27L96,25.75l-3.57.47L89,26.77l-3.44.64-3.37.73-3.27.8-3.17.89-3.08,1-2.94,1.05Z"/><path class="cls-18" d="M114.42,254.55l-.22-.1L0,197.36V57.2L114.42,0,228.84,57.2V197.36l-.27.13ZM1,196.76l113.46,56.72,113.47-56.72V57.8L114.42,1.07,1,57.8Z"/></g></g></svg>